<?xml version="1.0" encoding="UTF-8"?>
<svg height="128px" viewBox="0 0 128 128" width="128px" xmlns="http://www.w3.org/2000/svg" xmlns:xlink="http://www.w3.org/1999/xlink">
    <filter id="a" height="100%" width="100%" x="0%" y="0%">
        <feColorMatrix color-interpolation-filters="sRGB" values="0 0 0 0 1 0 0 0 0 1 0 0 0 0 1 0 0 0 1 0"/>
    </filter>
    <linearGradient id="b" gradientUnits="userSpaceOnUse" x1="7.99999975" x2="120.0000015" y1="115.99999225" y2="115.99999225">
        <stop offset="0" stop-color="#77767b"/>
        <stop offset="0.0357143" stop-color="#c0bfbc"/>
        <stop offset="0.0714286" stop-color="#9a9996"/>
        <stop offset="0.928571" stop-color="#9a9996"/>
        <stop offset="0.964286" stop-color="#c0bfbc"/>
        <stop offset="1" stop-color="#77767b"/>
    </linearGradient>
    <linearGradient id="c" gradientUnits="userSpaceOnUse" x1="12" x2="116" y1="32" y2="108">
        <stop offset="0" stop-color="#c0bfbc"/>
        <stop offset="0.269231" stop-color="#deddda"/>
        <stop offset="0.730769" stop-color="#c0bfbc"/>
        <stop offset="0.9999" stop-color="#9a9996"/>
    </linearGradient>
    <linearGradient id="d" gradientUnits="userSpaceOnUse">
        <stop offset="0" stop-color="#c0bfbc"/>
        <stop offset="0.5" stop-color="#deddda"/>
        <stop offset="1" stop-color="#9a9996"/>
    </linearGradient>
    <linearGradient id="e" x1="4" x2="12" xlink:href="#d" y1="68" y2="68"/>
    <linearGradient id="f" gradientTransform="matrix(-1 0 0 1 128 -174)" x1="4" x2="12" xlink:href="#d" y1="242" y2="242"/>
    <mask id="g">
        <g filter="url(#a)">
            <rect fill-opacity="0.2" height="153.6" width="153.6" x="-12.8" y="-12.8"/>
        </g>
    </mask>
    <clipPath id="h">
        <rect height="152" width="192"/>
    </clipPath>
    <mask id="i">
        <g filter="url(#a)">
            <rect fill-opacity="0.2" height="153.6" width="153.6" x="-12.8" y="-12.8"/>
        </g>
    </mask>
    <clipPath id="j">
        <rect height="152" width="192"/>
    </clipPath>
    <mask id="k">
        <g filter="url(#a)">
            <rect fill-opacity="0.2" height="153.6" width="153.6" x="-12.8" y="-12.8"/>
        </g>
    </mask>
    <clipPath id="l">
        <rect height="152" width="192"/>
    </clipPath>
    <mask id="m">
        <g filter="url(#a)">
            <rect fill-opacity="0.2" height="153.6" width="153.6" x="-12.8" y="-12.8"/>
        </g>
    </mask>
    <clipPath id="n">
        <rect height="152" width="192"/>
    </clipPath>
    <mask id="o">
        <g filter="url(#a)">
            <rect fill-opacity="0.2" height="153.6" width="153.6" x="-12.8" y="-12.8"/>
        </g>
    </mask>
    <clipPath id="p">
        <rect height="152" width="192"/>
    </clipPath>
    <mask id="q">
        <g filter="url(#a)">
            <rect fill-opacity="0.2" height="153.6" width="153.6" x="-12.8" y="-12.8"/>
        </g>
    </mask>
    <clipPath id="r">
        <rect height="152" width="192"/>
    </clipPath>
    <linearGradient id="s" gradientUnits="userSpaceOnUse" x1="32" x2="96" y1="64" y2="64">
        <stop offset="0" stop-opacity="0.501961"/>
        <stop offset="0.03125" stop-color="#cdab8f" stop-opacity="0.2"/>
        <stop offset="0.0625" stop-color="#865e3c" stop-opacity="0"/>
        <stop offset="0.9375" stop-color="#865e3c" stop-opacity="0"/>
        <stop offset="0.96875" stop-color="#cdab8f" stop-opacity="0.2"/>
        <stop offset="1" stop-opacity="0.501961"/>
    </linearGradient>
    <path d="m 16 40 h 96 c 4.417969 0 8 3.582031 8 8 v 60 c 0 4.417969 -3.582031 8 -8 8 h -96 c -4.417969 0 -8 -3.582031 -8 -8 v -60 c 0 -4.417969 3.582031 -8 8 -8 z m 0 0" fill="url(#b)"/>
    <path d="m 16 28 h 96 c 4.417969 0 8 3.582031 8 8 v 68 c 0 4.417969 -3.582031 8 -8 8 h -96 c -4.417969 0 -8 -3.582031 -8 -8 v -68 c 0 -4.417969 3.582031 -8 8 -8 z m 0 0" fill="#deddda"/>
    <path d="m 16 32 h 96 c 2.210938 0 4 1.789062 4 4 v 68 c 0 2.210938 -1.789062 4 -4 4 h -96 c -2.210938 0 -4 -1.789062 -4 -4 v -68 c 0 -2.210938 1.789062 -4 4 -4 z m 0 0" fill="url(#c)"/>
    <g fill="#9a9996">
        <path d="m 16 32 c -2.214844 0 -4 1.785156 -4 4 v 4 c 0 -2.214844 1.785156 -4 4 -4 h 96 c 2.214844 0 4 1.785156 4 4 v -4 c 0 -2.214844 -1.785156 -4 -4 -4 z m 0 0"/>
        <path d="m 8 40 c 2.210938 0 4 1.789062 4 4 v 52 c 0 2.210938 -1.789062 4 -4 4 s -4 -1.789062 -4 -4 v -52 c 0 -2.210938 1.789062 -4 4 -4 z m 0 0"/>
        <path d="m 120 40 c -2.210938 0 -4 1.789062 -4 4 v 52 c 0 2.210938 1.789062 4 4 4 s 4 -1.789062 4 -4 v -52 c 0 -2.210938 -1.789062 -4 -4 -4 z m 0 0"/>
    </g>
    <path d="m 8 38 c 2.210938 0 4 1.789062 4 4 v 52 c 0 2.210938 -1.789062 4 -4 4 s -4 -1.789062 -4 -4 v -52 c 0 -2.210938 1.789062 -4 4 -4 z m 0 0" fill="url(#e)"/>
    <path d="m 120 38 c -2.210938 0 -4 1.789062 -4 4 v 52 c 0 2.210938 1.789062 4 4 4 s 4 -1.789062 4 -4 v -52 c 0 -2.210938 -1.789062 -4 -4 -4 z m 0 0" fill="url(#f)"/>
    <path d="m 36 32 h 56 c 2.210938 0 4 1.789062 4 4 v 56 c 0 2.210938 -1.789062 4 -4 4 h -56 c -2.210938 0 -4 -1.789062 -4 -4 v -56 c 0 -2.210938 1.789062 -4 4 -4 z m 0 0" fill="#865e3c"/>
    <path d="m 40 80 h 8 v 8 h -8 z m 0 0" fill="#986a44"/>
    <path d="m 64 80 h 8 v 8 h -8 z m 0 0" fill="#b5835a"/>
    <path d="m 72 80 h 8 v 8 h -8 z m 0 0" fill="#986a44"/>
    <path d="m 40 72 h 8 v 8 h -8 z m 0 0" fill="#63452c"/>
    <path d="m 40 56 h 8 v 8 h -8 z m 0 0" fill="#986a44"/>
    <path d="m 48 64 h 8 v 8 h -8 z m 0 0" fill="#b5835a"/>
    <path d="m 64 64 h 8 v 8 h -8 z m 0 0" fill="#986a44"/>
    <path d="m 64 72 h 8 v 8 h -8 z m 0 0" fill="#63452c"/>
    <path d="m 72 56 h 8 v 8 h -8 z m 0 0" fill="#986a44"/>
    <path d="m 56 56 h 8 v 8 h -8 z m 0 0" fill="#63452c"/>
    <path d="m 88 80 h 8 v 8 h -8 z m 0 0" fill="#63452c"/>
    <path d="m 64 48 h 8 v 8 h -8 z m 0 0" fill="#986a44"/>
    <path d="m 88 56 h 8 v 8 h -8 z m 0 0" fill="#63452c"/>
    <path d="m 80 72 h 8 v 8 h -8 z m 0 0" fill="#b5835a"/>
    <path d="m 56 80 h 8 v 8 h -8 z m 0 0" fill="#63452c"/>
    <path d="m 56 88 h 8 v 8 h -8 z m 0 0" fill="#986a44"/>
    <path d="m 32 64 h 8 v 8 h -8 z m 0 0" fill="#986a44"/>
    <path d="m 72 88 h 8 v 8 h -8 z m 0 0" fill="#63452c"/>
    <path d="m 32 88 v 4 c 0 2.214844 1.785156 4 4 4 h 4 v -8 z m 0 0" fill="#b5835a"/>
    <path d="m 56 72 h 8 v 8 h -8 z m 0 0" fill="#986a44"/>
    <path d="m 80 64 h 8 v 8 h -8 z m 0 0" fill="#986a44"/>
    <path d="m 32 48 h 8 v 8 h -8 z m 0 0" fill="#63452c"/>
    <g mask="url(#g)">
        <g clip-path="url(#h)" transform="matrix(1 0 0 1 -8 -16)">
            <path d="m 40 106 v 2 c 0 2.214844 1.785156 4 4 4 h 56 c 2.214844 0 4 -1.785156 4 -4 v -2 c 0 2.214844 -1.785156 4 -4 4 h -56 c -2.214844 0 -4 -1.785156 -4 -4 z m 0 0"/>
        </g>
    </g>
    <g mask="url(#i)">
        <g clip-path="url(#j)" transform="matrix(1 0 0 1 -8 -16)">
            <path d="m 40 50 v 12 c 0 2.210938 1.789062 4 4 4 h 4 v 8 h 8 v -8 h 8 v 8 h 8 v 8 h 8 v -16 h 8 v 8 h 8 v -8 h 4 c 2.210938 0 4 -1.789062 4 -4 v -12 z m 0 0"/>
        </g>
    </g>
    <path d="m 32 32 v 12 c 0 2.210938 1.789062 4 4 4 h 4 v 8 h 8 v -8 h 8 v 8 h 8 v 8 h 8 v -16 h 8 v 8 h 8 v -8 h 4 c 2.210938 0 4 -1.789062 4 -4 v -12 z m 0 0" fill="#2ec27e"/>
    <path d="m 36 16 h 56 c 2.210938 0 4 1.789062 4 4 v 16 c 0 2.210938 -1.789062 4 -4 4 h -56 c -2.210938 0 -4 -1.789062 -4 -4 v -16 c 0 -2.210938 1.789062 -4 4 -4 z m 0 0" fill="#57e389"/>
    <g mask="url(#k)">
        <g clip-path="url(#l)" transform="matrix(1 0 0 1 -8 -16)">
            <path d="m 40 50 v 2 c 0 2.214844 1.785156 4 4 4 h 56 c 2.214844 0 4 -1.785156 4 -4 v -2 c 0 2.214844 -1.785156 4 -4 4 h -56 c -2.214844 0 -4 -1.785156 -4 -4 z m 0 0" fill="#ffffff"/>
        </g>
    </g>
    <g mask="url(#m)">
        <g clip-path="url(#n)" transform="matrix(1 0 0 1 -8 -16)">
            <path d="m 96 32 h -8 l -22 22 h 8 z m 0 0" fill="#ffffff"/>
        </g>
    </g>
    <g mask="url(#o)">
        <g clip-path="url(#p)" transform="matrix(1 0 0 1 -8 -16)">
            <path d="m 72 32 l -22 22 h -4 l 22 -22 z m 0 0" fill="#ffffff"/>
        </g>
    </g>
    <g mask="url(#q)">
        <g clip-path="url(#r)" transform="matrix(1 0 0 1 -8 -16)">
            <path d="m 40 58 v 2 c 0 2.210938 1.789062 4 4 4 h 4 v -2 h -4 c -2.210938 0 -4 -1.789062 -4 -4 z m 64 0 c 0 2.210938 -1.789062 4 -4 4 h -4 v 2 h 4 c 2.210938 0 4 -1.789062 4 -4 z m -48 4 v 2 h 8 v -2 z m 24 0 v 2 h 8 v -2 z m -32 8 v 2 h 8 v -2 z m 16 0 v 2 h 8 v -2 z m 24 0 v 2 h 8 v -2 z m -16 8 v 2 h 8 v -2 z m 0 0"/>
        </g>
    </g>
    <path d="m 32 36 v 56 c 0 2.214844 1.785156 4 4 4 h 56 c 2.214844 0 4 -1.785156 4 -4 v -56 c 0 2.214844 -1.785156 4 -4 4 h -56 c -2.214844 0 -4 -1.785156 -4 -4 z m 0 0" fill="url(#s)"/>
</svg>
